<svg xmlns="http://www.w3.org/2000/svg" viewBox="0 0 256 256" role="img" aria-labelledby="title desc">
  <title id="title">EchoSweep mark</title>
  <desc id="desc">A violet and pink sweeping ring around the letter E.</desc>
  <defs>
    <linearGradient id="ring" x1="34" y1="34" x2="222" y2="222" gradientUnits="userSpaceOnUse">
      <stop offset="0" stop-color="#edb3c1"/>
      <stop offset=".46" stop-color="#d6b6fc"/>
      <stop offset="1" stop-color="#855ebf"/>
    </linearGradient>
    <radialGradient id="glow" cx="0" cy="0" r="1" gradientTransform="translate(128 128) rotate(90) scale(112)">
      <stop stop-color="#4a315f"/>
      <stop offset="1" stop-color="#100d13"/>
    </radialGradient>
    <filter id="soft" x="-35%" y="-35%" width="170%" height="170%">
      <feGaussianBlur stdDeviation="5"/>
    </filter>
  </defs>
  <rect width="256" height="256" rx="58" fill="#100d13"/>
  <circle cx="128" cy="128" r="101" fill="url(#glow)" opacity=".84"/>
  <circle cx="128" cy="128" r="91" fill="none" stroke="#855ebf" stroke-opacity=".28" stroke-width="4"/>
  <path d="M42 137c9 48 49 82 98 82 47 0 85-31 97-74" fill="none" stroke="url(#ring)" stroke-width="12" stroke-linecap="round"/>
  <path d="M37 119C42 68 84 29 136 29c37 0 70 20 87 51" fill="none" stroke="url(#ring)" stroke-width="7" stroke-linecap="round" opacity=".78"/>
  <path d="M55 92C74 55 111 38 151 45" fill="none" stroke="#d6b6fc" stroke-width="3" stroke-linecap="round" opacity=".55" filter="url(#soft)"/>
  <path d="M92 72h78v18h-57v29h49v18h-49v29h59v18H92z" fill="url(#ring)"/>
  <path d="m198 57 5 13 13 5-13 5-5 13-5-13-13-5 13-5z" fill="#edb3c1"/>
  <circle cx="57" cy="183" r="4" fill="#d6b6fc"/>
</svg>
